# xmcd
#
# Track frame offsets:
#	150
#	14637
#	23149
#	37675
#	50539
#	63301
#	78747
#	88927
#	102163
#	111128
#	121138
#	133060
#	145818
#
# Disc length: 2110 seconds
#
# Revision: 0
# Processed by: cddbd v1.5.2PL0 Copyright (c) Steve Scherf et al.
# Submitted via: audiograbber 1.83.01
#
DISCID=ac083c0d
DTITLE=WERNER REISCHL - SING MIT MIR EIN HALLELUJA 2
DYEAR=1985
DGENRE=Sakral
TTITLE0=Und er wird auferstehn...
TTITLE1=In Gottes Namen
TTITLE2=Ein Kind ist uns geboren
TTITLE3=Weil du unsre Mutter bist (Ave Maria)
TTITLE4=Brannte nicht unser Herz
TTITLE5=Alles was ich hab
TTITLE6=Alle Knospen springen auf
TTITLE7=Du legst auf mich stets deine Hand
TTITLE8=Herr, mache mich zum Werkzeug deines Friedens
TTITLE9=Ich habe gesungen
TTITLE10=Vergiﬂ nicht zu danken
TTITLE11=Du Herr gabst uns dein festes Wort
TTITLE12=Es ist schoen, solche Freunde zu haben
EXTD=
EXTT0=
EXTT1=
EXTT2=
EXTT3=
EXTT4=
EXTT5=
EXTT6=
EXTT7=
EXTT8=
EXTT9=
EXTT10=
EXTT11=
EXTT12=
PLAYORDER=
